<?xml version="1.0" encoding="UTF-8"?>
<svg xmlns="http://www.w3.org/2000/svg" xmlns:xlink="http://www.w3.org/1999/xlink" viewBox="0 0 64 64" width="64px" height="64px">
<g id="surface29533233">
<path style=" stroke:none;fill-rule:nonzero;fill:rgb(100%,100%,100%);fill-opacity:1;" d="M 18.996094 15 C 9.625 15.023438 2.035156 22.628906 2.035156 32.003906 C 2.035156 41.375 9.625 48.980469 18.996094 49.003906 C 28.371094 48.980469 35.960938 41.375 35.960938 32.003906 C 35.960938 22.628906 28.371094 15.023438 18.996094 15 Z M 45.496094 16 C 40.8125 16.019531 37.015625 23.179688 37.015625 32.003906 C 37.015625 40.824219 40.8125 47.984375 45.496094 48.003906 C 50.183594 47.984375 53.980469 40.824219 53.980469 32.003906 C 53.980469 23.179688 50.183594 16.019531 45.496094 16 Z M 58.5 17 C 57.246094 16.988281 56.089844 19.84375 55.460938 24.488281 C 54.835938 29.136719 54.835938 34.867188 55.460938 39.515625 C 56.089844 44.160156 57.246094 47.015625 58.5 47.003906 C 59.753906 47.015625 60.910156 44.160156 61.539062 39.515625 C 62.164062 34.867188 62.164062 29.136719 61.539062 24.488281 C 60.910156 19.84375 59.753906 16.988281 58.5 17 Z M 58.5 17 "/>
</g>
</svg>
